<mxfile host="app.diagrams.net" modified="2024-03-26T06:54:57.043Z" agent="Mozilla/5.0 (Windows NT 10.0; Win64; x64) AppleWebKit/537.36 (KHTML, like Gecko) Chrome/122.0.0.0 Safari/537.36" version="24.0.7" etag="daUHKVlD1Eov6KSdR_fr" type="github">
  <diagram name="第 1 页" id="eQK8iN9wtmOXh5SC_Mzd">
    <mxGraphModel>
      <root>
        <mxCell id="0" />
        <mxCell id="1" parent="0" />
      </root>
    </mxGraphModel>
  </diagram>
</mxfile>
